<?xml version="1.0" encoding="UTF-8" standalone="no"?>
<svg
   xmlns="http://www.w3.org/2000/svg"
   width="5.4068151"
   height="642.05107"
   viewBox="0 0 5.4068151 642.05107">

  <path
     style="fill:none;stroke:#3c3c3c;stroke-width:3;stroke-linecap:round;stroke-linejoin:round;"
     d="m 2.7,1.6
        c -0.23,5.1 -0.1,16.4 0.36,34
          0.47,17.5 0.66,31.3 0.56,41.4
         -0.09,10.05 -0.1,15.89 -0.02,17.52
          0.08,1.63 0.1,9.71 0.06,24.25
         -0.03,14.54 -0.14,24.65 -0.33,30.35
         -0.18,5.69 -0.28,10.54 -0.29,14.54
         -0.01,4 -0.18,9.81 -0.52,17.42
         -0.34,7.6 -0.48,12.92 -0.42,15.94
          0.05,3.01 0.28,7.35 0.67,13
          0.39,5.64 0.46,15.35 0.2,29.12
         -0.26,13.76 -0.29,23.86 -0.1,30.29
          0.19,6.42 0.3,17.02 0.34,31.78
          0.03,14.76 0,28.37 -0.11,40.83
         -0.11,12.45 -0.31,22.04 -0.59,28.76
         -0.27,6.71 -0.32,14.78 -0.15,24.21
          0.17,9.42 0.19,26.8 0.05,52.14
         -0.13,25.34 -0.17,43.5 -0.11,54.48
          0.05,10.98 -0.05,23.8 -0.32,38.46
         -0.27,14.66 -0.4,25.89 -0.39,33.69
          0.01,7.8 0.23,17.77 0.68,29.92
          0.44,12.14 0.61,19.34 0.49,21.58
         -0.11,2.24 -0.2,7.24 -0.27,14.99" />
</svg>