<svg xmlns="http://www.w3.org/2000/svg" version="1.1" xmlns:xlink="http://www.w3.org/1999/xlink" xmlns:svgjs="http://svgjs.dev/svgjs" viewBox="0 0 800 800"><g stroke-width="0.3" stroke="currentColor" fill="none"><path d="M397.4981523219663 363.9166033976089C399.0462956651335 363.0229434070153 400.9537043348665 363.0229434070153 402.5018476780337 363.91685358237675L429.9981543986953 379.791827653804C431.5462977418626 380.68548764439765 432.500002076729 382.3374576662033 432.500002076729 384.12502783215837V415.8749759750129C432.500002076729 417.662546140968 431.5462977418626 419.31451616277366 429.9981543986953 420.2084263381351L402.5018476780337 436.08340040956233C400.9537043348665 436.97706040015595 399.0462956651335 436.97706040015595 397.4981523219663 436.0831502247945L370.0018456013047 420.2081761533673C368.4537022581374 419.31451616277366 367.499997923271 417.662546140968 367.499997923271 415.8749759750129V384.12502783215837C367.499997923271 382.3374576662033 368.4537022581374 380.68548764439765 370.0018456013047 379.7915774690362L397.4981523219663 363.9166033976089Z " transform="rotate(0, 400, 400)" opacity="1.00"></path><path d="M397.6906021433535 366.692242834459C399.11965753704635 365.8673259200649 400.88034246295365 365.8673259200649 402.3093978566465 366.6924737742447L427.6906040603341 381.3462959940237C429.119659454027 382.17121290841783 430.00000191698064 383.6961083131615 430.00000191698064 385.34617308173546V414.65381752129343C430.00000191698064 416.3038822898674 429.119659454027 417.82877769461106 427.6906040603341 418.6539255487909L402.3093978566465 433.30774776856987C400.88034246295365 434.132664682964 399.11965753704635 434.132664682964 397.6906021433535 433.3075168287842L372.3093959396659 418.6536946090052C370.880340545973 417.82877769461106 369.99999808301936 416.3038822898674 369.99999808301936 414.65381752129343V385.34617308173546C369.99999808301936 383.6961083131615 370.880340545973 382.17121290841783 372.3093959396659 381.346065054238L397.6906021433535 366.692242834459Z " transform="rotate(0, 400, 400)" opacity="0.92"></path><path d="M397.88305196474073 369.4678975300982C399.1930194089592 368.71172369190356 400.8069805910408 368.71172369190356 402.11694803525927 369.4681092249017L425.38305372197294 382.90077959303244C426.69302116619144 383.65695343122707 427.50000175723227 385.0547742189088 427.50000175723227 386.56733359010155V413.4326743263631C427.50000175723227 414.94523369755586 426.69302116619144 416.34305448523753 425.38305372197294 417.09944001823567L402.11694803525927 430.53211038636647C400.8069805910408 431.28828422456104 399.1930194089592 431.28828422456104 397.88305196474073 430.5318986915629L374.61694627802706 417.09922832343216C373.3069788338086 416.34305448523753 372.49999824276773 414.94523369755586 372.49999824276773 413.4326743263631V386.56733359010155C372.49999824276773 385.0547742189088 373.3069788338086 383.65695343122707 374.61694627802706 382.9005678982289L397.88305196474073 369.4678975300982Z " transform="rotate(0, 400, 400)" opacity="0.84"></path><path d="M398.0755017861279 372.2435369669483C399.26638128087194 371.55610620495315 400.73361871912806 371.55610620495315 401.9244982138721 372.24372941676967L423.0755033836118 384.45524793325217C424.26638287835584 385.1426786952473 425.0000015974839 386.413424865867 425.0000015974839 387.78847883967865V412.21151587264364C425.0000015974839 413.58656984645523 424.26638287835584 414.857316017075 423.0755033836118 415.54493922889145L401.9244982138721 427.75645774537395C400.73361871912806 428.4438885073691 399.26638128087194 428.4438885073691 398.0755017861279 427.75626529555257L376.92449661638824 415.54474677907007C375.73361712164416 414.857316017075 374.99999840251616 413.58656984645523 374.99999840251616 412.21151587264364V387.78847883967865C374.99999840251616 386.413424865867 375.73361712164416 385.1426786952473 376.92449661638824 384.4550554834308L398.0755017861279 372.2435369669483Z " transform="rotate(0, 400, 400)" opacity="0.76"></path><path d="M398.2679516075151 375.01919166258745C399.33974315278476 374.4005039767918 400.66025684721524 374.4005039767918 401.7320483924849 375.0193648674267L420.76795304525064 386.00973153226096C421.83974459052024 386.62841921805654 422.5000014377355 387.7720907716143 422.5000014377355 389.00963934804474V410.99037267771325C422.5000014377355 412.2279212541437 421.83974459052024 413.37159280770146 420.76795304525064 413.9904536983363L401.7320483924849 424.98082036317055C400.66025684721524 425.5995080489662 399.33974315278476 425.5995080489662 398.2679516075151 424.9806471583313L379.23204695474936 413.99028049349704C378.16025540947976 413.37159280770146 377.4999985622645 412.2279212541437 377.4999985622645 410.99037267771325V389.00963934804474C377.4999985622645 387.7720907716143 378.16025540947976 386.62841921805654 379.23204695474936 386.0095583274217L398.2679516075151 375.01919166258745Z " transform="rotate(0, 400, 400)" opacity="0.68"></path><path d="M398.46040142890234 377.7948310994375C399.4131050246976 377.2448864898414 400.5868949753024 377.2448864898414 401.53959857109766 377.7949850592946L418.46040270688945 387.56419987248063C419.4131063026847 388.1141444820767 420.0000012779871 389.13074141857254 420.0000012779871 390.2307845976218V409.7692142239938C420.0000012779871 410.8692574030431 419.4131063026847 411.88585433953887 418.46040270688945 412.4359529089921L401.53959857109766 422.2051677221781C400.5868949753024 422.75511233177417 399.4131050246976 422.75511233177417 398.46040142890234 422.20501376232096L381.53959729311055 412.43579894913495C380.58689369731536 411.88585433953887 379.9999987220129 410.8692574030431 379.9999987220129 409.7692142239938V390.2307845976218C379.9999987220129 389.13074141857254 380.58689369731536 388.1141444820767 381.53959729311055 387.56404591262356L398.46040142890234 377.7948310994375Z " transform="rotate(0, 400, 400)" opacity="0.60"></path><path d="M398.65285125028953 380.5704857950767C399.48646689661035 380.0892842616801 400.51353310338965 380.0892842616801 401.34714874971047 380.57062050995165L416.1528523685283 389.1186834714894C416.9864680148491 389.599885004886 417.5000011182387 390.4894073243198 417.5000011182387 391.45194510598793V408.5480710290634C417.5000011182387 409.5106088107316 416.9864680148491 410.4001311301654 416.1528523685283 410.8814673784369L401.34714874971047 419.4295303399747C400.51353310338965 419.9107318733712 399.48646689661035 419.9107318733712 398.65285125028953 419.4293956250997L383.8471476314717 410.8813326635619C383.0135319851509 410.4001311301654 382.4999988817613 409.5106088107316 382.4999988817613 408.5480710290634V391.45194510598793C382.4999988817613 390.4894073243198 383.0135319851509 389.599885004886 383.8471476314717 389.1185487566144L398.65285125028953 380.5704857950767Z " transform="rotate(0, 400, 400)" opacity="0.53"></path><path d="M398.8453010716768 383.34612523192675C399.5598287685232 382.9336667747297 400.4401712314768 382.9336667747297 401.1546989283232 383.3462407018196L413.8453020301671 390.6731518117091C414.5598297270135 391.0856102689062 415.0000009584903 391.848057971278 415.0000009584903 392.67309035556497V407.326912575344C415.0000009584903 408.15194495963095 414.5598297270135 408.9143926620028 413.8453020301671 409.3269665890927L401.1546989283232 416.65387769898217C400.4401712314768 417.06633615617926 399.5598287685232 417.06633615617926 398.8453010716768 416.65376222908935L386.1546979698329 409.3268511191999C385.4401702729865 408.9143926620028 384.9999990415097 408.15194495963095 384.9999990415097 407.326912575344V392.67309035556497C384.9999990415097 391.848057971278 385.4401702729865 391.0856102689062 386.1546979698329 390.67303634181627L398.8453010716768 383.34612523192675Z " transform="rotate(0, 400, 400)" opacity="0.45"></path><path d="M399.03775089306396 386.1217646687769C399.633190640436 385.7780492877793 400.366809359564 385.7780492877793 400.96224910693604 386.12186089368754L411.5377516918059 392.2276201519288C412.1331914391779 392.57133553292635 412.50000079874195 393.20670861823623 412.50000079874195 393.89423560514206V406.10575412162456C412.50000079874195 406.7932811085304 412.1331914391779 407.4286541938402 411.5377516918059 407.7724657997485L400.96224910693604 413.8782250579897C400.366809359564 414.2219404389873 399.633190640436 414.2219404389873 399.03775089306396 413.878128833079L388.4622483081941 407.7723695748378C387.8668085608221 407.4286541938402 387.49999920125805 406.7932811085304 387.49999920125805 406.10575412162456V393.89423560514206C387.49999920125805 393.20670861823623 387.8668085608221 392.57133553292635 388.4622483081941 392.2275239270181L399.03775089306396 386.1217646687769Z " transform="rotate(0, 400, 400)" opacity="0.37"></path><path d="M399.23020071445114 388.897419364416C399.70655251234876 388.622447059618 400.29344748765124 388.622447059618 400.76979928554886 388.8974963443446L409.2302013534447 393.7821037509376C409.70655315134235 394.05707605573565 410.0000006389935 394.5653745239835 410.0000006389935 395.11539611350815V404.88461092669417C410.0000006389935 405.4346325162188 409.70655315134235 405.9429309844667 409.2302013534447 406.2179802691933L400.76979928554886 411.1025876757863C400.29344748765124 411.37755998058435 399.70655251234876 411.37755998058435 399.23020071445114 411.10251069585775L390.7697986465553 406.21790328926477C390.29344684865765 405.9429309844667 389.9999993610065 405.4346325162188 389.9999993610065 404.88461092669417V395.11539611350815C389.9999993610065 394.5653745239835 390.29344684865765 394.05707605573565 390.7697986465553 393.78202677100904L399.23020071445114 388.897419364416Z " transform="rotate(0, 400, 400)" opacity="0.29"></path><path d="M399.4226505358384 391.6730740600552C399.7799143842616 391.4668448314567 400.2200856157384 391.4668448314567 400.5773494641616 391.6731317950016L406.92265101508355 395.33658734994634C407.27991486350675 395.5428165785449 407.50000047924516 395.9240404297308 407.50000047924516 396.3365566218743V403.6634677317638C407.50000047924516 404.0759839239073 407.27991486350675 404.4572077750932 406.92265101508355 404.6634947386381L400.5773494641616 408.3269502935829C400.2200856157384 408.5331795221814 399.7799143842616 408.5331795221814 399.4226505358384 408.3268925586365L393.07734898491645 404.66343700369174C392.72008513649325 404.4572077750932 392.49999952075484 404.0759839239073 392.49999952075484 403.6634677317638V396.3365566218743C392.49999952075484 395.9240404297308 392.72008513649325 395.5428165785449 393.07734898491645 395.33652961499996L399.4226505358384 391.6730740600552Z " transform="rotate(0, 400, 400)" opacity="0.21"></path><path d="M399.6151003572256 394.4486982381162C399.8532762561744 394.3112120857172 400.1467237438256 394.3112120857172 400.3848996427744 394.44873672808046L404.61510067672236 396.891040431377C404.85327657567115 397.02852658377606 405.0000003194968 397.2826758179 405.0000003194968 397.5576866126623V402.4422940192553C405.0000003194968 402.7173048140176 404.85327657567115 402.97145404814154 404.61510067672236 403.10897869050484L400.3848996427744 405.55128239380133C400.1467237438256 405.6887685462004 399.8532762561744 405.6887685462004 399.6151003572256 405.5512439038371L395.38489932327764 403.1089402005406C395.14672342432885 402.97145404814154 394.9999996805032 402.7173048140176 394.9999996805032 402.4422940192553V397.5576866126623C394.9999996805032 397.2826758179 395.14672342432885 397.02852658377606 395.38489932327764 396.8910019414127L399.6151003572256 394.4486982381162Z " transform="rotate(0, 400, 400)" opacity="0.13"></path><path d="M399.8075501786128 397.22435293375537C399.9266381280872 397.1556098575559 400.0733618719128 397.1556098575559 400.1924498213872 397.22437217873755L402.3075503383612 398.44552403038574C402.4266382878356 398.5142671065853 402.50000015974837 398.64134172364726 402.50000015974837 398.77884712102843V401.2211508243249C402.50000015974837 401.35865622170604 402.4266382878356 401.48573083876806 402.3075503383612 401.5544931599497L400.1924498213872 402.77564501159793C400.0733618719128 402.8443880877974 399.9266381280872 402.8443880877974 399.8075501786128 402.7756257666158L397.6924496616388 401.55447391496756C397.5733617121644 401.48573083876806 397.49999984025163 401.35865622170604 397.49999984025163 401.2211508243249V398.77884712102843C397.49999984025163 398.64134172364726 397.5733617121644 398.5142671065853 397.6924496616388 398.4455047854036L399.8075501786128 397.22435293375537Z " transform="rotate(0, 400, 400)" opacity="0.05"></path></g></svg>