<svg xmlns="http://www.w3.org/2000/svg" version="1.1" xmlns:xlink="http://www.w3.org/1999/xlink" xmlns:svgjs="http://svgjs.dev/svgjs" viewBox="0 0 1422 800"><defs><filter id="llleaves-blur-2" x="-100%" y="-100%" width="400%" height="400%"><feGaussianBlur in="SourceGraphic" stdDeviation="2"></feGaussianBlur></filter><filter id="llleaves-blur-3" x="-100%" y="-100%" width="400%" height="400%"><feGaussianBlur in="SourceGraphic" stdDeviation="4"></feGaussianBlur></filter><filter id="llleaves-blur-4" x="-100%" y="-100%" width="400%" height="400%"><feGaussianBlur in="SourceGraphic" stdDeviation="12"></feGaussianBlur></filter></defs><g fill="currentColor"><path d="M1000 629H1050C1078 629 1100 651 1100 679H1050C1022 679 1000 657 1000 629Z " transform="matrix(0.06383850846325043,-0.5199229283698986,0.5199229283698986,0.06383850846325043,642.9399709596732,1158.1686902534277)"></path><path d="M69 266H119C147 266 169 288 169 316H119C91 316 69 294 69 266Z " transform="matrix(0.6010623440903325,-0.17235185372127615,0.17235185372127615,0.6010623440903325,-2.6808083796409363,136.6007284625451)"></path><path d="M1021 168H1071C1099 168 1121 190 1121 218H1071C1043 218 1021 196 1021 168Z " transform="matrix(0.01801806521028325,-0.5159698790297566,0.5159698790297566,0.01801806521028325,952.1204655070436,742.1262538552846)"></path><path d="M433 736H483C511 736 533 758 533 786H483C455 786 433 764 433 736Z " transform="matrix(-0.3826935013047086,-0.04698885351809389,0.04698885351809389,-0.3826935013047086,632.0824436029047,1074.9253707421226)" filter="url(#llleaves-blur-2)"></path><path d="M814 447H864C892 447 914 469 914 497H864C836 497 814 475 814 447Z " transform="matrix(-0.30908402268652213,-0.32006587500022554,0.32006587500022554,-0.30908402268652213,979.9775026010486,894.4245747082332)"></path><path d="M402 658H452C480 658 502 680 502 708H452C424 708 402 686 402 658Z " transform="matrix(-0.37671269745413183,-0.16772329902653527,0.16772329902653527,-0.37671269745413183,507.71912601414397,1016.105703521166)"></path><path d="M1327 507H1377C1405 507 1427 529 1427 557H1377C1349 557 1327 535 1327 507Z " transform="matrix(-0.09657023210474637,0.25157405563101704,-0.25157405563101704,-0.09657023210474637,1643.8146072039367,236.9578888758146)" filter="url(#llleaves-blur-3)"></path><path d="M339 334H389C417 334 439 356 439 384H389C361 384 339 362 339 334Z " transform="matrix(-0.1934302115256345,-0.43445136827064634,0.43445136827064634,-0.1934302115256345,308.2763110743098,597.4430281949842)"></path><path d="M933 156H983C1011 156 1033 178 1033 206H983C955 206 933 184 933 156Z " transform="matrix(0.045334525080898774,-0.5181759927955206,0.5181759927955206,0.045334525080898774,844.6463071494873,682.1614518783542)"></path><path d="M1255 245H1305C1333 245 1355 267 1355 295H1305C1277 295 1255 273 1255 245Z " transform="matrix(-0.24967845175492184,0.19507018560457137,-0.19507018560457137,-0.24967845175492184,1683.4993296534071,82.84658975986326)" filter="url(#llleaves-blur-2)"></path><path d="M71 661H121C149 661 171 683 171 711H121C93 711 71 689 71 661Z " transform="matrix(0.6010623440903325,-0.17235185372127615,0.17235185372127615,0.6010623440903325,-69.96191528772567,294.5258062543063)"></path><path d="M1335 109H1385C1413 109 1435 131 1435 159H1385C1357 159 1335 137 1335 109Z " transform="matrix(-0.17675425896361743,0.23456082405702136,-0.23456082405702136,-0.17675425896361743,1661.235799088251,-167.18167061784987)" filter="url(#llleaves-blur-3)"></path><path d="M773 99H823C851 99 873 121 873 149H823C795 149 773 127 773 99Z " transform="matrix(-0.37269118910550497,-0.18177363839811672,0.18177363839811672,-0.37269118910550497,1107.1849174724641,319.8134118507327)"></path><path d="M1044 422H1094C1122 422 1144 444 1144 472H1094C1066 472 1044 450 1044 422Z " transform="matrix(0.01801806521028325,-0.5159698790297566,0.5159698790297566,0.01801806521028325,843.649700733649,1003.4169725095571)"></path><path d="M913 722H963C991 722 1013 744 1013 772H963C935 772 913 750 913 722Z " transform="matrix(-0.017753790010969193,-0.5084020274858009,0.5084020274858009,-0.017753790010969193,600.3205852486701,1249.8532336070202)"></path><path d="M619 571H669C697 571 719 593 719 621H669C641 621 619 599 619 571Z " transform="matrix(-0.27259476609247496,0.17702511096635246,-0.17702511096635246,-0.27259476609247496,956.8728646518118,640.0366813546252)" filter="url(#llleaves-blur-2)"></path><path d="M288 184H338C366 184 388 206 388 234H338C310 234 288 212 288 184Z " transform="matrix(0.16698880497989413,-0.5139386959791895,0.5139386959791895,0.16698880497989413,174.14459645714518,347.8106190001682)"></path><path d="M1330 275H1380C1408 275 1430 297 1430 325H1380C1352 325 1330 303 1330 275Z " transform="matrix(-0.09657023210474637,0.25157405563101704,-0.25157405563101704,-0.09657023210474637,1588.739136993855,-18.201127139379594)" filter="url(#llleaves-blur-3)"></path><path d="M368 577H418C446 577 468 599 468 627H418C390 627 368 605 368 577Z " transform="matrix(-0.3185709070806263,-0.3076403489478683,0.3076403489478683,-0.3185709070806263,365.96314909308506,922.373351922746)"></path><path d="M-12 724H38C66 724 88 746 88 774H38C10 774 -12 752 -12 724Z " transform="matrix(0.3598422165371437,-0.4443681300029889,0.4443681300029889,0.3598422165371437,-308.50573360065016,496.36416875379297)"></path><path d="M339 97H389C417 97 439 119 439 147H389C361 147 339 125 339 97Z " transform="matrix(-0.2747542266718296,-0.3646111737231718,0.3646111737231718,-0.2747542266718296,451.3968309811148,297.35376223227706)"></path><path d="M79 432H129C157 432 179 454 179 482H129C101 482 79 460 79 432Z " transform="matrix(0.6010623440903325,-0.17235185372127615,0.17235185372127615,0.6010623440903325,-27.301839538276113,204.54789788076266)"></path><path d="M493 481H543C571 481 593 503 593 531H543C515 531 493 509 493 481Z " transform="matrix(-0.32783101650696905,0.11288127147616964,-0.11288127147616964,-0.32783101650696905,778.1301653302261,610.5879639409662)" filter="url(#llleaves-blur-2)"></path><path d="M240 649H290C318 649 340 671 340 699H290C262 699 240 677 240 649Z " transform="matrix(0.47368886739994204,-0.35695016451783174,0.35695016451783174,0.47368886739994204,-87.95418243100181,458.2492510826103)"></path><path d="M1308 738H1358C1386 738 1408 760 1408 788H1358C1330 788 1308 766 1308 738Z " transform="matrix(-0.16695064410100377,0.23843022959716087,-0.23843022959716087,-0.16695064410100377,1766.6412398717966,566.5950896561213)" filter="url(#llleaves-blur-3)"></path><path d="M667 654H717C745 654 767 676 767 704H717C689 704 667 682 667 654Z " transform="matrix(-0.30927898505516255,0.13769987590966853,-0.13769987590966853,-0.30927898505516255,1032.2512480272164,790.269619825223)" filter="url(#llleaves-blur-2)"></path><path d="M1002 724H1052C1080 724 1102 746 1102 774H1052C1024 774 1002 752 1002 724Z " transform="matrix(0.06383850846325043,-0.5199229283698986,0.5199229283698986,0.06383850846325043,595.4196157476065,1248.1438778061588)"></path><path d="M198 187H248C276 187 298 209 298 237H248C220 237 198 215 198 187Z " transform="matrix(0.5545216901402656,-0.2585777107254595,0.2585777107254595,0.5545216901402656,55.6601461714167,158.5686739501776)"></path><path d="M575 652H625C653 652 675 674 675 702H625C597 702 575 680 575 652Z " transform="matrix(-0.2722698559548084,0.17681411185584497,-0.17681411185584497,-0.2722698559548084,914.8718136981623,750.8178725715022)" filter="url(#llleaves-blur-2)"></path><path d="M1184 284H1234C1262 284 1284 306 1284 334H1234C1206 334 1184 312 1184 284Z " transform="matrix(-0.3794740291940532,-0.1456664320375765,0.1456664320375765,-0.3794740291940532,1657.2600245258502,606.0098521553318)"></path><path d="M488 13H538C566 13 588 35 588 63H538C510 63 488 41 488 13Z " transform="matrix(-0.13695061099472422,0.24706544234808225,-0.24706544234808225,-0.13695061099472422,621.0679155243888,-89.71708476546873)" filter="url(#llleaves-blur-3)"></path><path d="M1274 8H1324C1352 8 1374 30 1374 58H1324C1296 58 1274 36 1274 8Z " transform="matrix(-0.35983628175952087,0.05057169139468809,-0.05057169139468809,-0.35983628175952087,1802.0921028656305,-22.082322108502858)" filter="url(#llleaves-blur-2)"></path><path d="M1233 439H1283C1311 439 1333 461 1333 489H1283C1255 489 1233 467 1233 439Z " transform="matrix(-0.32685247994765826,0.11254433431818546,-0.11254433431818546,-0.32685247994765826,1754.5723028964835,471.26516976548146)" filter="url(#llleaves-blur-2)"></path><path d="M456 227H506C534 227 556 249 556 277H506C478 277 456 255 456 227Z " transform="matrix(-0.35999070902130503,0.05059339473096004,-0.05059339473096004,-0.35999070902130503,700.9048342369822,317.1174009395031)" filter="url(#llleaves-blur-2)"></path><path d="M450 571H500C528 571 550 593 550 621H500C472 621 450 599 450 571Z " transform="matrix(-0.3826935013047086,-0.04698885351809389,0.04698885351809389,-0.3826935013047086,663.3413939555703,847.5797535366532)" filter="url(#llleaves-blur-2)"></path><path d="M803 553H853C881 553 903 575 903 603H853C825 603 803 581 803 553Z " transform="matrix(-0.3664894346181678,-0.2031484108706581,0.2031484108706581,-0.3664894346181678,1048.1957062460567,963.1164876819726)"></path><path d="M816 292H866C894 292 916 314 916 342H866C838 342 816 320 816 292Z " transform="matrix(-0.30908402268652213,-0.32006587500022554,0.32006587500022554,-0.30908402268652213,1032.2058812714567,692.1566829418229)"></path><path d="M1177 192H1227C1255 192 1277 214 1277 242H1227C1199 242 1177 220 1177 192Z " transform="matrix(-0.3794740291940532,-0.1456664320375765,0.1456664320375765,-0.3794740291940532,1661.0050180689495,478.07857644521596)"></path><path d="M1097 207H1147C1175 207 1197 229 1197 257H1147C1119 257 1097 235 1097 207Z " transform="matrix(-0.1497724267174513,-0.46095213203108676,0.46095213203108676,-0.1497724267174513,1211.8480788137044,795.4592984381052)"></path><path d="M319 656H369C397 656 419 678 419 706H369C341 706 319 684 319 656Z " transform="matrix(-0.017752864852839636,-0.5083755344232762,0.5083755344232762,-0.017752864852839636,29.34706818844677,880.6802731669727)"></path><path d="M72 93H122C150 93 172 115 172 143H122C94 143 72 121 72 93Z " transform="matrix(0.4817803197782539,-0.3500338914749239,0.3500338914749239,0.4817803197782539,21.918801793011994,103.85405702610676)"></path><path d="M39 354H89C117 354 139 376 139 404H89C61 404 39 382 39 354Z " transform="matrix(0.5600244982529019,-0.24933897109771208,0.24933897109771208,0.5600244982529019,-55.34165039054116,188.94188358984653)"></path><path d="M715 572H765C793 572 815 594 815 622H765C737 622 715 600 715 572Z " transform="matrix(-0.3405488493539926,0.09124978916775049,-0.09124978916775049,-0.3405488493539926,1079.9959938889515,730.5015743510044)" filter="url(#llleaves-blur-2)"></path><path d="M1328 666H1378C1406 666 1428 688 1428 716H1378C1350 716 1328 694 1328 666Z " transform="matrix(-0.09657023210474637,0.25157405563101704,-0.25157405563101704,-0.09657023210474637,1684.9114522813734,411.06098172483826)" filter="url(#llleaves-blur-3)"></path><path d="M945 431H995C1023 431 1045 453 1045 481H995C967 481 945 459 945 431Z " transform="matrix(0.045334525080898774,-0.5181759927955206,0.5181759927955206,0.045334525080898774,713.6038948297484,950.9125693946531)"></path><path d="M163 657H213C241 657 263 679 263 707H213C185 707 163 685 163 657Z " transform="matrix(0.5973323098529962,-0.18262281414863188,0.18262281414863188,0.5973323098529962,-38.7805412480551,313.5180240939152)"></path><path d="M519 89H569C597 89 619 111 619 139H569C541 139 519 117 519 89Z " transform="matrix(-0.22124876369750596,0.2136574475426243,-0.2136574475426243,-0.22124876369750596,719.24749556374,17.651271409762458)" filter="url(#llleaves-blur-2)"></path><path d="M438 119H488C516 119 538 141 538 169H488C460 169 438 147 438 119Z " transform="matrix(-0.35613586819529186,0.05640638016360417,-0.05640638016360417,-0.35613586819529186,669.9168224228614,167.7572515002832)" filter="url(#llleaves-blur-2)"></path><path d="M118 346H168C196 346 218 368 218 396H168C140 396 118 374 118 346Z " transform="matrix(0.6176123559841674,-0.13127755883291667,0.13127755883291667,0.6176123559841674,15.537149867647798,163.92044581380392)"></path><path d="M262 272H312C340 272 362 294 362 322H312C284 322 262 300 262 272Z " transform="matrix(0.3424251432255164,-0.4544135131100492,0.4544135131100492,0.3424251432255164,70.20254191995429,337.07674855235695)"></path><path d="M243 734H293C321 734 343 756 343 784H293C265 784 243 762 243 734Z " transform="matrix(0.47368886739994204,-0.35695016451783174,0.35695016451783174,0.47368886739994204,-116.71601301721734,504.0565478471687)"></path><path d="M1186 102H1236C1264 102 1286 124 1286 152H1236C1208 152 1186 130 1186 102Z " transform="matrix(-0.3823838013503802,-0.12424402857914965,0.12424402857914965,-0.3823838013503802,1692.8473868395179,329.1283620953272)"></path><path d="M1075 357H1125C1153 357 1175 379 1175 407H1125C1097 407 1075 385 1075 357Z " transform="matrix(-0.05258392465038938,-0.500302623557184,0.500302623557184,-0.05258392465038938,993.0413130328437,964.9275107182808)"></path><path d="M738 253H788C816 253 838 275 838 303H788C760 303 738 281 738 253Z " transform="matrix(-0.3710595094385591,0.012957683596824811,-0.012957683596824811,-0.3710595094385591,1083.9971294775019,370.9438889496215)" filter="url(#llleaves-blur-2)"></path><path d="M682 88H732C760 88 782 110 782 138H732C704 138 682 116 682 88Z " transform="matrix(-0.3549578644315286,0.06258864851393604,-0.06258864851393604,-0.3549578644315286,998.9016740459538,107.29534796856154)" filter="url(#llleaves-blur-2)"></path><path d="M1263 79H1313C1341 79 1363 101 1363 129H1313C1285 129 1263 107 1263 79Z " transform="matrix(-0.31348235043394196,0.13306536308540257,-0.13306536308540257,-0.31348235043394196,1738.4411238806474,-38.11265728600361)" filter="url(#llleaves-blur-2)"></path><path d="M199 329H249C277 329 299 351 299 379H249C221 379 199 357 199 329Z " transform="matrix(0.5545216901402656,-0.2585777107254595,0.2585777107254595,0.5545216901402656,19.387589558261226,222.08517166098534)"></path><path d="M208 564H258C286 564 308 586 308 614H258C230 614 208 592 208 564Z " transform="matrix(0.5545216901402656,-0.2585777107254595,0.2585777107254595,0.5545216901402656,-37.3688676734842,329.09977387455206)"></path><path d="M716 733H766C794 733 816 755 816 783H766C738 783 716 761 716 733Z " transform="matrix(-0.3405488493539926,0.09124978916775049,-0.09124978916775049,-0.3405488493539926,1096.0277587943133,946.2386893078296)" filter="url(#llleaves-blur-2)"></path><path d="M1067 11H1117C1145 11 1167 33 1167 61H1117C1089 61 1067 39 1067 11Z " transform="matrix(-0.2006806143549159,-0.43036096629622644,0.43036096629622644,-0.2006806143549159,1325.6672514477768,523.9377014696619)"></path><path d="M1162 571H1212C1240 571 1262 593 1262 621H1212C1184 621 1162 599 1162 571Z " transform="matrix(-0.3335659890518478,-0.2798950983866901,0.2798950983866901,-0.3335659890518478,1449.4645000923722,1134.0381887195697)"></path><path d="M862 107H912C940 107 962 129 962 157H912C884 157 862 135 862 107Z " transform="matrix(-0.17953185658373072,-0.4443569379998114,0.4443569379998114,-0.17953185658373072,1017.0779373883875,560.9517325248803)"></path><path d="M159 107H209C237 107 259 129 259 157H209C181 157 159 135 159 107Z " transform="matrix(0.5823048577484061,-0.2119416354890349,0.2119416354890349,0.5823048577484061,59.32198884603051,99.43156059441868)"></path><path d="M1228 641H1278C1306 641 1328 663 1328 691H1278C1250 691 1228 669 1228 641Z " transform="matrix(-0.32685247994765826,0.11254433431818546,-0.11254433431818546,-0.32685247994765826,1770.671996029019,739.8520923864993)" filter="url(#llleaves-blur-2)"></path><path d="M1332 353H1382C1410 353 1432 375 1432 403H1382C1354 403 1332 381 1332 353Z " transform="matrix(-0.09657023210474637,0.25157405563101704,-0.25157405563101704,-0.09657023210474637,1610.555053797284,66.82820285352852)" filter="url(#llleaves-blur-3)"></path><path d="M507 316H557C585 316 607 338 607 366H557C529 366 507 344 507 316Z " transform="matrix(-0.32783101650696905,0.11288127147616964,-0.11288127147616964,-0.32783101650696905,778.0943897677557,389.91550841664997)" filter="url(#llleaves-blur-2)"></path><path d="M651 15H701C729 15 751 37 751 65H701C673 65 651 43 651 15Z " transform="matrix(-0.3198304792303982,0.12277141828469137,-0.12277141828469137,-0.3198304792303982,930.1120226718966,-33.269545048352725)" filter="url(#llleaves-blur-2)"></path><path d="M-4 208H46C74 208 96 230 96 258H46C18 258 -4 236 -4 208Z " transform="matrix(0.3598422165371437,-0.4443681300029889,0.4443681300029889,0.3598422165371437,-74.09051625140502,169.597697526983)"></path><path d="M738 15H788C816 15 838 37 838 65H788C760 65 738 43 738 15Z " transform="matrix(-0.3730319606044283,-0.1819398437633961,0.1819398437633961,-0.3730319606044283,1074.6715912057539,198.28987530973325)"></path><path d="M988 12H1038C1066 12 1088 34 1088 62H1038C1010 62 988 40 988 12Z " transform="matrix(-0.061138884374247596,-0.49793625456375645,0.49793625456375645,-0.061138884374247596,1083.03852056161,556.1199709590263)"></path><path d="M377 174H427C455 174 477 196 477 224H427C399 224 377 202 377 174Z " transform="matrix(-0.3185709070806263,-0.3076403489478683,0.3076403489478683,-0.3185709070806263,501.8093478828016,393.7580395097844)"></path><path d="M1203 15H1253C1281 15 1303 37 1303 65H1253C1225 65 1203 43 1203 15Z " transform="matrix(-0.3851731425714809,-0.07487007452459093,0.07487007452459093,-0.3851731425714809,1732.6271446610817,149.2191290821717)" filter="url(#llleaves-blur-2)"></path><path d="M152 735H202C230 735 252 757 252 785H202C174 785 152 763 152 735Z " transform="matrix(0.617405726543971,-0.13123363838956872,0.13123363838956872,0.617405726543971,-22.45352193795435,317.28084278127494)"></path><path d="M1320 587H1370C1398 587 1420 609 1420 637H1370C1342 637 1320 615 1320 587Z " transform="matrix(-0.09657023210474637,0.25157405563101704,-0.25157405563101704,-0.09657023210474637,1656.264540029685,326.44452583361146)" filter="url(#llleaves-blur-3)"></path><path d="M642 229H692C720 229 742 251 742 279H692C664 279 642 257 642 229Z " transform="matrix(-0.28533050331638515,0.16473564289772633,-0.16473564289772633,-0.28533050331638515,931.291561590961,212.47688295713522)" filter="url(#llleaves-blur-2)"></path><path d="M72 13H122C150 13 172 35 172 63H122C94 63 72 41 72 13Z " transform="matrix(0.19491635719166217,-0.5077744706499513,0.5077744706499513,0.19491635719166217,78.92477453791906,92.54166384601092)"></path><path d="M686 320H736C764 320 786 342 786 370H736C708 370 686 348 686 320Z " transform="matrix(-0.30927898505516255,0.13769987590966853,-0.13769987590966853,-0.30927898505516255,1011.1357901894354,350.35414117451506)" filter="url(#llleaves-blur-2)"></path><path d="M1249 343H1299C1327 343 1349 365 1349 393H1299C1271 393 1249 371 1249 343Z " transform="matrix(-0.32685247994765826,0.11254433431818546,-0.11254433431818546,-0.32685247994765826,1764.9976864811006,342.0866223414153)" filter="url(#llleaves-blur-2)"></path><path d="M1340 21H1390C1418 21 1440 43 1440 71H1390C1362 71 1340 49 1340 21Z " transform="matrix(-0.308697800494989,0.13744111587202085,-0.13744111587202085,-0.308697800494989,1825.4122340181477,-130.84305223933947)" filter="url(#llleaves-blur-2)"></path><path d="M-10 24H40C68 24 90 46 90 74H40C12 74 -10 52 -10 24Z " transform="matrix(-0.2904691929674627,-0.34616770425691434,0.34616770425691434,-0.2904691929674627,34.65655021010971,77.07969862568225)"></path><path d="M284 571H334C362 571 384 593 384 621H334C306 621 284 599 284 571Z " transform="matrix(0.16698880497989413,-0.5139386959791895,0.5139386959791895,0.16698880497989413,-28.081723666881544,668.1301966890323)"></path><path d="M408 25H458C486 25 508 47 508 75H458C430 75 408 53 408 25Z " transform="matrix(-0.3057119240268118,0.1425558113630015,-0.1425558113630015,-0.3057119240268118,605.1438517724299,-0.004965402914088202)" filter="url(#llleaves-blur-2)"></path><path d="M871 214H921C949 214 971 236 971 264H921C893 264 871 242 871 214Z " transform="matrix(-0.11890859030250617,-0.47691630681891684,0.47691630681891684,-0.11890859030250617,916.5318143388871,706.6590716625212)"></path><path d="M265 380H315C343 380 365 402 365 430H315C287 430 265 408 265 380Z " transform="matrix(0.3424251432255164,-0.4544135131100492,0.4544135131100492,0.3424251432255164,23.098607074392476,409.45807362333136)"></path><path d="M1033 496H1083C1111 496 1133 518 1133 546H1083C1055 546 1033 524 1033 496Z " transform="matrix(0.01801806521028325,-0.5159698790297566,0.5159698790297566,0.01801806521028325,794.66612840276,1070.4079670146689)"></path><path d="M-11 511H39C67 511 89 533 89 561H39C11 561 -11 539 -11 511Z " transform="matrix(0.3598422165371437,-0.4443681300029889,0.4443681300029889,0.3598422165371437,-213.21516412655066,360.4549290062075)"></path><path d="M322 15H372C400 15 422 37 422 65H372C344 65 322 43 322 15Z " transform="matrix(-0.30506847101318896,-0.3271458827296153,0.3271458827296153,-0.30506847101318896,472.3996359077217,173.90100721594445)"></path><path d="M156 256H206C234 256 256 278 256 306H206C178 306 156 284 156 256Z " transform="matrix(0.617405726543971,-0.13123363838956872,0.13123363838956872,0.617405726543971,41.937767944473194,134.5431203493953)"></path><path d="M1236 530H1286C1314 530 1336 552 1336 580H1286C1258 580 1236 558 1236 530Z " transform="matrix(-0.32685247994765826,0.11254433431818546,-0.11254433431818546,-0.32685247994765826,1768.7943947592814,591.6711124377638)" filter="url(#llleaves-blur-2)"></path><path d="M-13 415H37C65 415 87 437 87 465H37C9 465 -13 443 -13 415Z " transform="matrix(0.3598422165371437,-0.4443681300029889,0.4443681300029889,0.3598422165371437,-171.83613921318945,298.11104553376737)"></path></g><g fill="none" stroke-width="3" stroke="currentColor"><path d="M-8 120H42C70 120 92 142 92 170H42C14 170 -8 148 -8 120Z " transform="matrix(0.19491635386487088,-0.5077744619833637,0.5077744619833637,0.19491635386487088,-39.813783849912326,138.063656092895)"></path><path d="M523 169H573C601 169 623 191 623 219H573C545 219 523 197 523 169Z " transform="matrix(-0.3011237235794025,0.14686785317997286,-0.14686785317997286,-0.3011237235794025,774.0362571279124,168.26272250227964)" filter="url(#llleaves-blur-2)"></path><path d="M1030 268H1080C1108 268 1130 290 1130 318H1080C1052 318 1030 296 1030 268Z " transform="matrix(0.01801806521028325,-0.5159698790297566,0.5159698790297566,0.01801806521028325,909.3613150171755,844.9681762455241)"></path><path d="M248 103H298C326 103 348 125 348 153H298C270 153 248 131 248 103Z " transform="matrix(0.2971519640755878,-0.4755425484825293,0.4755425484825293,0.2971519640755878,148.57926849971108,231.67622804611847)"></path><path d="M248 472H298C326 472 348 494 348 522H298C270 522 248 500 248 472Z " transform="matrix(0.3424251432255164,-0.4544135131100492,0.4544135131100492,0.3424251432255164,-29.88620869689828,462.229930723713)"></path><path d="M-16 624H34C62 624 84 646 84 674H34C6 674 -16 652 -16 624Z " transform="matrix(0.3598422165371437,-0.4443681300029889,0.4443681300029889,0.3598422165371437,-266.6295517342027,430.5709178874954)"></path><path d="M908 602H958C986 602 1008 624 1008 652H958C930 652 908 630 908 602Z " transform="matrix(-0.017753790010969193,-0.5084020274858009,0.5084020274858009,-0.017753790010969193,656.2400595969114,1125.180768668275)"></path><path d="M1324 429H1374C1402 429 1424 451 1424 479H1374C1346 479 1324 457 1324 429Z " transform="matrix(-0.09657023210474637,0.25157405563101704,-0.25157405563101704,-0.09657023210474637,1620.9021201684036,152.18013293853744)" filter="url(#llleaves-blur-3)"></path><path d="M348 418H398C426 418 448 440 448 468H398C370 468 348 446 348 418Z " transform="matrix(-0.1934302115256345,-0.43445136827064634,0.43445136827064634,-0.1934302115256345,282.5232680433062,701.6012282775733)"></path><path d="M961 532H1011C1039 532 1061 554 1061 582H1011C983 582 961 560 961 532Z " transform="matrix(0.0730969786720115,-0.5201120288405948,0.5201120288405948,0.0730969786720115,647.3965544983851,1042.118244037531)"></path><path d="M408 489H458C486 489 508 511 508 539H458C430 539 408 517 408 489Z " transform="matrix(-0.37671269745413183,-0.16772329902653527,0.16772329902653527,-0.37671269745413183,544.3246397343532,784.4475974455768)"></path><path d="M543 399H593C621 399 643 421 643 449H593C565 449 543 427 543 399Z " transform="matrix(-0.28106219632641877,0.16887920526993777,-0.16887920526993777,-0.28106219632641877,831.2746654560199,443.02500251732846)" filter="url(#llleaves-blur-2)"></path><path d="M534 565H584C612 565 634 587 634 615H584C556 615 534 593 534 565Z " transform="matrix(-0.3011237235794025,0.14686785317997286,-0.14686785317997286,-0.3011237235794025,846.5082879465549,681.8921706547433)" filter="url(#llleaves-blur-2)"></path><path d="M762 649H812C840 649 862 671 862 699H812C784 699 762 677 762 649Z " transform="matrix(-0.38528641346895354,-0.08189515530513515,0.08189515530513515,-0.38528641346895354,1069.6552330611291,1000.1819087858444)" filter="url(#llleaves-blur-2)"></path><path d="M903 18H953C981 18 1003 40 1003 68H953C925 68 903 46 903 18Z " transform="matrix(-9.425217808312676e-17,-0.5130849599451793,0.5130849599451793,-9.425217808312676e-17,930.9373467223575,531.9699668277559)"></path><path d="M1332 192H1382C1410 192 1432 214 1432 242H1382C1354 242 1332 220 1332 192Z " transform="matrix(-0.09657023210474637,0.25157405563101704,-0.25157405563101704,-0.09657023210474637,1570.05163084069,-109.71960451533556)" filter="url(#llleaves-blur-3)"></path><path d="M867 379H917C945 379 967 401 967 429H917C889 429 867 407 867 379Z " transform="matrix(-0.2205240221001478,-0.4147453646083674,0.4147453646083674,-0.2205240221001478,951.6634009640551,873.4132042743327)"></path><path d="M583 480H633C661 480 683 502 683 530H633C605 530 583 508 583 480Z " transform="matrix(-0.2722698559548084,0.17681411185584497,-0.17681411185584497,-0.2722698559548084,894.6379453065954,530.5729444524285)" filter="url(#llleaves-blur-2)"></path><path d="M238 18H288C316 18 338 40 338 68H288C260 68 238 46 238 18Z " transform="matrix(0.19541335823271544,-0.5090692026271406,0.5090692026271406,0.19541335823271544,209.8309771160109,181.20915595260973)"></path><path d="M559 241H609C637 241 659 263 659 291H609C581 291 559 269 559 241Z " transform="matrix(-0.28106219632641877,0.16887920526993777,-0.16887920526993777,-0.28106219632641877,825.0887461645924,237.9151082134353)" filter="url(#llleaves-blur-2)"></path><path d="M1094 735H1144C1172 735 1194 757 1194 785H1144C1116 785 1094 763 1094 735Z " transform="matrix(-0.1497724267174513,-0.46095213203108676,0.46095213203108676,-0.1497724267174513,965.0160358211384,1401.156283348826)"></path><path d="M1134 26H1184C1212 26 1234 48 1234 76H1184C1156 76 1134 54 1134 26Z " transform="matrix(-0.3175691706796316,-0.3066729833501121,0.3066729833501121,-0.3175691706796316,1544.3615759338281,430.29683999119396)"></path><path d="M-16 302H34C62 302 84 324 84 352H34C6 352 -16 330 -16 302Z " transform="matrix(0.3598422165371437,-0.4443681300029889,0.4443681300029889,0.3598422165371437,-123.54301387324026,224.4401116124556)"></path><path d="M76 509H126C154 509 176 531 176 559H126C98 559 76 537 76 509Z " transform="matrix(0.6010623440903325,-0.17235185372127615,0.17235185372127615,0.6010623440903325,-41.769745242543365,234.7490418246432)"></path><path d="M443 400H493C521 400 543 422 543 450H493C465 450 443 428 443 400Z " transform="matrix(-0.3826935013047086,-0.04698885351809389,0.04698885351809389,-0.3826935013047086,661.6976333980315,610.8102428389213)" filter="url(#llleaves-blur-2)"></path><path d="M1111 653H1161C1189 653 1211 675 1211 703H1161C1133 703 1111 681 1111 653Z " transform="matrix(-0.2515370799059386,-0.3873331364473841,0.3873331364473841,-0.2515370799059386,1190.4226832594684,1298.2359115916393)"></path><path d="M159 495H209C237 495 259 517 259 545H209C181 545 159 523 159 495Z " transform="matrix(0.5973323098529962,-0.18262281414863188,0.18262281414863188,0.5973323098529962,-10.806316116564773,247.555367033506)"></path><path d="M848 650H898C926 650 948 672 948 700H898C870 700 848 678 848 650Z " transform="matrix(-0.2205240221001478,-0.4147453646083674,0.4147453646083674,-0.2205240221001478,816.0774507352847,1196.2950523359136)"></path><path d="M423 315H473C501 315 523 337 523 365H473C445 365 423 343 423 315Z " transform="matrix(-0.37671269745413183,-0.16772329902653527,0.16772329902653527,-0.37671269745413183,594.1591842267824,547.415437573956)"></path><path d="M813 735H863C891 735 913 757 913 785H863C835 785 813 763 813 735Z " transform="matrix(-0.30908402268652213,-0.32006587500022554,0.32006587500022554,-0.30908402268652213,886.4894465782972,1271.1207073669514)"></path><path d="M357 252H407C435 252 457 274 457 302H407C379 302 357 280 357 252Z " transform="matrix(-0.1934302115256345,-0.43445136827064634,0.43445136827064634,-0.1934302115256345,365.38306707996423,507.4018754787538)"></path><path d="M1135 473H1185C1213 473 1235 495 1235 523H1185C1157 523 1135 501 1135 473Z " transform="matrix(-0.3335659890518478,-0.2798950983866901,0.2798950983866901,-0.3335659890518478,1440.887938029868,995.791554136048)"></path><path d="M736 463H786C814 463 836 485 836 513H786C758 513 736 491 736 463Z " transform="matrix(-0.3710595094385591,0.012957683596824811,-0.012957683596824811,-0.3710595094385591,1083.976124013958,658.8923012989126)" filter="url(#llleaves-blur-2)"></path><path d="M337 736H387C415 736 437 758 437 786H387C359 786 337 764 337 736Z " transform="matrix(-0.1934302115256345,-0.43445136827064634,0.43445136827064634,-0.1934302115256345,131.2400006064587,1076.333070491748)"></path><path d="M127 583H177C205 583 227 605 227 633H177C149 633 127 611 127 583Z " transform="matrix(0.6176123559841674,-0.13127755883291667,0.13127755883291667,0.6176123559841674,-12.134142779610983,255.72781547505252)"></path><path d="M905 301H955C983 301 1005 323 1005 351H955C927 351 905 329 905 301Z " transform="matrix(-0.017753790010969193,-0.5084020274858009,0.5084020274858009,-0.017753790010969193,806.2158085001045,817.3116717925158)"></path><path d="M176 415H226C254 415 276 437 276 465H226C198 465 176 443 176 415Z " transform="matrix(0.5973323098529962,-0.18262281414863188,0.18262281414863188,0.5973323098529962,10.648859747824815,218.4465396622725)"></path><path d="M526 734H576C604 734 626 756 626 784H576C548 784 526 762 526 734Z " transform="matrix(-0.3011237235794025,0.14686785317997286,-0.14686785317997286,-0.3011237235794025,860.9199653453352,902.9570227651021)" filter="url(#llleaves-blur-2)"></path><path d="M601 325H651C679 325 701 347 701 375H651C623 375 601 353 601 325Z " transform="matrix(-0.2722698559548084,0.17681411185584497,-0.17681411185584497,-0.2722698559548084,890.1326153761261,330.1884627660279)" filter="url(#llleaves-blur-2)"></path><path d="M324 499H374C402 499 424 521 424 549H374C346 549 324 527 324 499Z " transform="matrix(-0.017752864852839636,-0.5083755344232762,0.5083755344232762,-0.017752864852839636,114.25079141716532,723.4349510571932)"></path><path d="M878 500H928C956 500 978 522 978 550H928C900 550 878 528 878 500Z " transform="matrix(-0.11890859030250617,-0.47691630681891684,0.47691630681891684,-0.11890859030250617,787.9661107207944,1030.0053426367706)"></path><path d="M1042 85H1092C1120 85 1142 107 1142 135H1092C1064 135 1042 113 1042 85Z " transform="matrix(-0.09446813445953746,-0.485996420515035,0.485996420515035,-0.09446813445953746,1141.699596573161,651.0995859929673)"></path><path d="M575 25H625C653 25 675 47 675 75H625C597 75 575 53 575 25Z " transform="matrix(-0.20654630874067717,0.22149379866459987,-0.22149379866459987,-0.20654630874067717,765.1661328961533,-78.10630872834105)" filter="url(#llleaves-blur-2)"></path><path d="M1110 122H1160C1188 122 1210 144 1210 172H1160C1132 172 1110 150 1110 122Z " transform="matrix(-0.3000576049255546,-0.3332477311999944,0.3332477311999944,-0.3000576049255546,1459.0794052272443,577.67583611605)"></path><path d="M1255 159H1305C1333 159 1355 181 1355 209H1305C1277 209 1255 187 1255 159Z " transform="matrix(-0.24967845175492184,0.19507018560457137,-0.19507018560457137,-0.24967845175492184,1666.7232936914143,-24.625757091059995)" filter="url(#llleaves-blur-2)"></path><path d="M796 184H846C874 184 896 206 896 234H846C818 234 796 212 796 184Z " transform="matrix(-0.3664894346181678,-0.2031484108706581,0.2031484108706581,-0.3664894346181678,1113.5920438150024,457.4598474317738)"></path><path d="M667 499H717C745 499 767 521 767 549H717C689 549 667 527 667 499Z " transform="matrix(-0.30927898505516255,0.13769987590966853,-0.13769987590966853,-0.30927898505516255,1010.9077672612179,587.3313771416729)" filter="url(#llleaves-blur-2)"></path><path d="M155 20H205C233 20 255 42 255 70H205C177 70 155 48 155 20Z " transform="matrix(0.3599994524744656,-0.4445623002148928,0.4445623002148928,0.3599994524744656,111.19480873306438,119.93529618270207)"></path><path d="M1073 565H1123C1151 565 1173 587 1173 615H1123C1095 615 1073 593 1073 565Z " transform="matrix(-0.05258392465038938,-0.500302623557184,0.500302623557184,-0.05258392465038938,886.8731994836487,1182.8643617984476)"></path><path d="M488 653H538C566 653 588 675 588 703H538C510 703 488 681 488 653Z " transform="matrix(-0.32783101650696905,0.11288127147616964,-0.11288127147616964,-0.32783101650696905,790.9065889415924,839.5393051375457)" filter="url(#llleaves-blur-2)"></path><path d="M1161 379H1211C1239 379 1261 401 1261 429H1211C1183 429 1161 407 1161 379Z " transform="matrix(-0.3335659890518478,-0.2798950983866901,0.2798950983866901,-0.3335659890518478,1501.870792993565,877.7136237232282)"></path><path d="M651 407H701C729 407 751 429 751 457H701C673 457 651 435 651 407Z " transform="matrix(-0.28533050331638515,0.16473564289772633,-0.16473564289772633,-0.28533050331638515,972.1824805566038,439.7830917613722)" filter="url(#llleaves-blur-2)"></path><path d="M705 167H755C783 167 805 189 805 217H755C727 217 705 195 705 167Z " transform="matrix(-0.3405488493539926,0.09124978916775049,-0.09124978916775049,-0.3405488493539926,1029.6343407824725,188.49178825431497)" filter="url(#llleaves-blur-2)"></path><path d="M760 368H810C838 368 860 390 860 418H810C782 418 760 396 760 368Z " transform="matrix(-0.38528641346895354,-0.08189515530513515,0.08189515530513515,-0.38528641346895354,1089.897198874934,610.7526362904582)" filter="url(#llleaves-blur-2)"></path><path d="M1197 729H1247C1275 729 1297 751 1297 779H1247C1219 779 1197 757 1197 729Z " transform="matrix(-0.3760308332917243,-0.0065636426101186906,0.0065636426101186906,-0.3760308332917243,1710.9614625867507,1045.712110636778)" filter="url(#llleaves-blur-2)"></path><path d="M619 734H669C697 734 719 756 719 784H669C641 784 619 762 619 734Z " transform="matrix(-0.27259476609247496,0.17702511096635246,-0.17702511096635246,-0.27259476609247496,985.7279577393273,847.4696282276985)" filter="url(#llleaves-blur-2)"></path><path d="M606 131H656C684 131 706 153 706 181H656C628 181 606 159 606 131Z " transform="matrix(-0.28148977186969865,0.16913611857555394,-0.16913611857555394,-0.28148977186969865,867.0425248443087,88.95911062610959)" filter="url(#llleaves-blur-2)"></path><path d="M822 19H872C900 19 922 41 922 69H872C844 69 822 47 822 19Z " transform="matrix(-0.17199677671535238,-0.44806692218374533,0.44806692218374533,-0.17199677671535238,1002.2662447197025,442.2822143197014)"></path><path d="M1111 289H1161C1189 289 1211 311 1211 339H1161C1133 339 1111 317 1111 289Z " transform="matrix(-0.2515370799059386,-0.3873331364473841,0.3873331364473841,-0.2515370799059386,1331.4119449263162,842.6764145058776)"></path><path d="M980 345H1030C1058 345 1080 367 1080 395H1030C1002 395 980 373 980 345Z " transform="matrix(0.0730969786720115,-0.5201120288405948,0.5201120288405948,0.0730969786720115,762.268661296808,878.6695075971684)"></path><path d="M92 179H142C170 179 192 201 192 229H142C114 229 92 207 92 179Z " transform="matrix(0.6010623440903325,-0.17235185372127615,0.17235185372127615,0.6010623440903325,21.489368980032438,105.85724503399338)"></path><path d="M957 86H1007C1035 86 1057 108 1057 136H1007C979 136 957 114 957 86Z " transform="matrix(-0.008928061191713762,-0.5114882831103542,0.5114882831103542,-0.008928061191713762,959.2153581948064,627.059715884407)"></path><path d="M67 739H117C145 739 167 761 167 789H117C89 789 67 767 67 739Z " transform="matrix(0.5600244982529019,-0.24933897109771208,0.24933897109771208,0.5600244982529019,-139.01784021424157,365.31394295321525)"></path><path d="M44 580H94C122 580 144 602 144 630H94C66 630 44 608 44 580Z " transform="matrix(0.5600244982529019,-0.24933897109771208,0.24933897109771208,0.5600244982529019,-109.4923803498886,289.62304184017927)"></path><path d="M958 236H1008C1036 236 1058 258 1058 286H1008C980 286 958 264 958 236Z " transform="matrix(0.0730969786720115,-0.5201120288405948,0.5201120288405948,0.0730969786720115,798.5690059712172,766.1946136379245)"></path></g></svg>