<svg xmlns="http://www.w3.org/2000/svg" version="1.1" xmlns:xlink="http://www.w3.org/1999/xlink" xmlns:svgjs="http://svgjs.dev/svgjs" viewBox="0 0 800 800"><rect width="100%" height="100%" fill="none"></rect><g fill="currentColor"><rect width="383" height="3" x="-79.5" y="709.5" rx="1.5" transform="rotate(60, 112, 711)" opacity="0.73"></rect><rect width="262" height="3" x="-4" y="477.5" rx="1.5" transform="rotate(60, 127, 479)" opacity="0.52"></rect><rect width="366" height="3" x="-151" y="634.5" rx="1.5" transform="rotate(60, 32, 636)" opacity="0.08"></rect><rect width="54" height="3" x="167" y="775.5" rx="1.5" transform="rotate(60, 194, 777)" opacity="0.94"></rect><rect width="175" height="3" x="165.5" y="225.5" rx="1.5" transform="rotate(60, 253, 227)" opacity="0.52"></rect><rect width="271" height="3" x="272.5" y="147.5" rx="1.5" transform="rotate(60, 408, 149)" opacity="0.31"></rect><rect width="311" height="3" x="86.5" y="742.5" rx="1.5" transform="rotate(60, 242, 744)" opacity="0.09"></rect><rect width="445" height="3" x="424.5" y="452.5" rx="1.5" transform="rotate(60, 647, 454)" opacity="0.21"></rect><rect width="322" height="3" x="315" y="521.5" rx="1.5" transform="rotate(60, 476, 523)" opacity="0.73"></rect><rect width="288" height="3" x="528" y="525.5" rx="1.5" transform="rotate(60, 672, 527)" opacity="0.10"></rect><rect width="573" height="3" x="175.5" y="755.5" rx="1.5" transform="rotate(60, 462, 757)" opacity="0.35"></rect><rect width="602" height="3" x="-166" y="40.5" rx="1.5" transform="rotate(60, 135, 42)" opacity="0.48"></rect><rect width="501" height="3" x="-215.5" y="755.5" rx="1.5" transform="rotate(60, 35, 757)" opacity="0.32"></rect><rect width="160" height="3" x="67" y="666.5" rx="1.5" transform="rotate(60, 147, 668)" opacity="0.29"></rect><rect width="84" height="3" x="482" y="390.5" rx="1.5" transform="rotate(60, 524, 392)" opacity="0.76"></rect><rect width="187" height="3" x="501.5" y="244.5" rx="1.5" transform="rotate(60, 595, 246)" opacity="0.60"></rect><rect width="372" height="3" x="580" y="256.5" rx="1.5" transform="rotate(60, 766, 258)" opacity="0.79"></rect><rect width="708" height="3" x="-313" y="86.5" rx="1.5" transform="rotate(60, 41, 88)" opacity="0.80"></rect><rect width="128" height="3" x="-25" y="240.5" rx="1.5" transform="rotate(60, 39, 242)" opacity="0.90"></rect><rect width="418" height="3" x="-63" y="276.5" rx="1.5" transform="rotate(60, 146, 278)" opacity="0.25"></rect><rect width="307" height="3" x="32.5" y="167.5" rx="1.5" transform="rotate(60, 186, 169)" opacity="0.24"></rect><rect width="405" height="3" x="62.5" y="565.5" rx="1.5" transform="rotate(60, 265, 567)" opacity="0.56"></rect><rect width="424" height="3" x="168" y="328.5" rx="1.5" transform="rotate(60, 380, 330)" opacity="0.85"></rect><rect width="266" height="3" x="470" y="569.5" rx="1.5" transform="rotate(60, 603, 571)" opacity="0.13"></rect><rect width="734" height="3" x="-324" y="538.5" rx="1.5" transform="rotate(60, 43, 540)" opacity="0.39"></rect><rect width="96" height="3" x="439" y="142.5" rx="1.5" transform="rotate(60, 487, 144)" opacity="0.45"></rect><rect width="455" height="3" x="69.5" y="392.5" rx="1.5" transform="rotate(60, 297, 394)" opacity="0.37"></rect><rect width="30" height="3" x="720" y="774.5" rx="1.5" transform="rotate(60, 735, 776)" opacity="0.72"></rect><rect width="396" height="3" x="491" y="106.5" rx="1.5" transform="rotate(60, 689, 108)" opacity="0.22"></rect><rect width="435" height="3" x="487.5" y="715.5" rx="1.5" transform="rotate(60, 705, 717)" opacity="0.32"></rect><rect width="116" height="3" x="486" y="15.5" rx="1.5" transform="rotate(60, 544, 17)" opacity="0.65"></rect><rect width="672" height="3" x="-291" y="418.5" rx="1.5" transform="rotate(60, 45, 420)" opacity="0.60"></rect><rect width="456" height="3" x="480" y="389.5" rx="1.5" transform="rotate(60, 708, 391)" opacity="0.14"></rect><rect width="82" height="3" x="514" y="678.5" rx="1.5" transform="rotate(60, 555, 680)" opacity="0.07"></rect><rect width="407" height="3" x="457.5" y="621.5" rx="1.5" transform="rotate(60, 661, 623)" opacity="0.32"></rect><rect width="390" height="3" x="535" y="29.5" rx="1.5" transform="rotate(60, 730, 31)" opacity="0.74"></rect><rect width="389" height="3" x="571.5" y="351.5" rx="1.5" transform="rotate(60, 766, 353)" opacity="0.56"></rect><rect width="43" height="3" x="521.5" y="308.5" rx="1.5" transform="rotate(60, 543, 310)" opacity="0.77"></rect><rect width="225" height="3" x="184.5" y="717.5" rx="1.5" transform="rotate(60, 297, 719)" opacity="0.56"></rect><rect width="467" height="3" x="266.5" y="59.5" rx="1.5" transform="rotate(60, 500, 61)" opacity="0.17"></rect><rect width="275" height="3" x="472.5" y="750.5" rx="1.5" transform="rotate(60, 610, 752)" opacity="0.73"></rect><rect width="282" height="3" x="474" y="150.5" rx="1.5" transform="rotate(60, 615, 152)" opacity="0.84"></rect><rect width="105" height="3" x="56.5" y="772.5" rx="1.5" transform="rotate(60, 109, 774)" opacity="0.40"></rect><rect width="216" height="3" x="469" y="103.5" rx="1.5" transform="rotate(60, 577, 105)" opacity="0.39"></rect><rect width="274" height="3" x="175" y="520.5" rx="1.5" transform="rotate(60, 312, 522)" opacity="0.25"></rect><rect width="414" height="3" x="234" y="394.5" rx="1.5" transform="rotate(60, 441, 396)" opacity="0.94"></rect><rect width="199" height="3" x="663.5" y="529.5" rx="1.5" transform="rotate(60, 763, 531)" opacity="0.67"></rect><rect width="436" height="3" x="5" y="317.5" rx="1.5" transform="rotate(60, 223, 319)" opacity="0.50"></rect><rect width="324" height="3" x="499" y="191.5" rx="1.5" transform="rotate(60, 661, 193)" opacity="0.52"></rect><rect width="54" height="3" x="296" y="133.5" rx="1.5" transform="rotate(60, 323, 135)" opacity="0.64"></rect><rect width="153" height="3" x="337.5" y="515.5" rx="1.5" transform="rotate(60, 414, 517)" opacity="0.70"></rect><rect width="66" height="3" x="194" y="655.5" rx="1.5" transform="rotate(60, 227, 657)" opacity="0.77"></rect><rect width="333" height="3" x="23.5" y="558.5" rx="1.5" transform="rotate(60, 190, 560)" opacity="0.23"></rect><rect width="167" height="3" x="501.5" y="49.5" rx="1.5" transform="rotate(60, 585, 51)" opacity="0.39"></rect><rect width="68" height="3" x="690" y="187.5" rx="1.5" transform="rotate(60, 724, 189)" opacity="0.11"></rect><rect width="341" height="3" x="548.5" y="476.5" rx="1.5" transform="rotate(60, 719, 478)" opacity="0.28"></rect><rect width="40" height="3" x="487" y="471.5" rx="1.5" transform="rotate(60, 507, 473)" opacity="0.50"></rect><rect width="252" height="3" x="486" y="394.5" rx="1.5" transform="rotate(60, 612, 396)" opacity="0.78"></rect><rect width="507" height="3" x="-148.5" y="169.5" rx="1.5" transform="rotate(60, 105, 171)" opacity="0.09"></rect><rect width="76" height="3" x="481" y="597.5" rx="1.5" transform="rotate(60, 519, 599)" opacity="0.96"></rect><rect width="579" height="3" x="354.5" y="39.5" rx="1.5" transform="rotate(60, 644, 41)" opacity="0.44"></rect><rect width="132" height="3" x="264" y="774.5" rx="1.5" transform="rotate(60, 330, 776)" opacity="0.50"></rect><rect width="73" height="3" x="739.5" y="663.5" rx="1.5" transform="rotate(60, 776, 665)" opacity="0.27"></rect><rect width="300" height="3" x="164" y="268.5" rx="1.5" transform="rotate(60, 314, 270)" opacity="0.16"></rect><rect width="52" height="3" x="36" y="683.5" rx="1.5" transform="rotate(60, 62, 685)" opacity="0.97"></rect><rect width="51" height="3" x="235.5" y="53.5" rx="1.5" transform="rotate(60, 261, 55)" opacity="0.92"></rect><rect width="221" height="3" x="87.5" y="119.5" rx="1.5" transform="rotate(60, 198, 121)" opacity="0.63"></rect><rect width="309" height="3" x="272.5" y="666.5" rx="1.5" transform="rotate(60, 427, 668)" opacity="0.98"></rect><rect width="276" height="3" x="96" y="482.5" rx="1.5" transform="rotate(60, 234, 484)" opacity="0.59"></rect><rect width="136" height="3" x="472" y="185.5" rx="1.5" transform="rotate(60, 540, 187)" opacity="0.97"></rect><rect width="153" height="3" x="697.5" y="70.5" rx="1.5" transform="rotate(60, 774, 72)" opacity="0.15"></rect><rect width="167" height="3" x="258.5" y="487.5" rx="1.5" transform="rotate(60, 342, 489)" opacity="0.90"></rect><rect width="127" height="3" x="92.5" y="377.5" rx="1.5" transform="rotate(60, 156, 379)" opacity="0.58"></rect><rect width="563" height="3" x="-207.5" y="326.5" rx="1.5" transform="rotate(60, 74, 328)" opacity="0.35"></rect><rect width="434" height="3" x="224" y="248.5" rx="1.5" transform="rotate(60, 441, 250)" opacity="0.64"></rect><rect width="220" height="3" x="582" y="268.5" rx="1.5" transform="rotate(60, 692, 270)" opacity="0.83"></rect><rect width="508" height="3" x="322" y="492.5" rx="1.5" transform="rotate(60, 576, 494)" opacity="0.70"></rect><rect width="33" height="3" x="149.5" y="731.5" rx="1.5" transform="rotate(60, 166, 733)" opacity="0.43"></rect><rect width="494" height="3" x="58" y="643.5" rx="1.5" transform="rotate(60, 305, 645)" opacity="0.74"></rect><rect width="421" height="3" x="155.5" y="708.5" rx="1.5" transform="rotate(60, 366, 710)" opacity="0.53"></rect><rect width="337" height="3" x="-0.5" y="620.5" rx="1.5" transform="rotate(60, 168, 622)" opacity="0.70"></rect><rect width="370" height="3" x="571" y="590.5" rx="1.5" transform="rotate(60, 756, 592)" opacity="0.66"></rect><rect width="483" height="3" x="-22.5" y="410.5" rx="1.5" transform="rotate(60, 219, 412)" opacity="0.24"></rect><rect width="362" height="3" x="175" y="583.5" rx="1.5" transform="rotate(60, 356, 585)" opacity="0.11"></rect><rect width="337" height="3" x="12.5" y="219.5" rx="1.5" transform="rotate(60, 181, 221)" opacity="0.38"></rect><rect width="211" height="3" x="673.5" y="728.5" rx="1.5" transform="rotate(60, 779, 730)" opacity="0.52"></rect><rect width="229" height="3" x="603.5" y="652.5" rx="1.5" transform="rotate(60, 718, 654)" opacity="0.63"></rect><rect width="272" height="3" x="264" y="39.5" rx="1.5" transform="rotate(60, 400, 41)" opacity="0.57"></rect><rect width="232" height="3" x="254" y="437.5" rx="1.5" transform="rotate(60, 370, 439)" opacity="0.24"></rect><rect width="242" height="3" x="650" y="445.5" rx="1.5" transform="rotate(60, 771, 447)" opacity="0.65"></rect><rect width="312" height="3" x="281" y="598.5" rx="1.5" transform="rotate(60, 437, 600)" opacity="0.33"></rect><rect width="385" height="3" x="-80.5" y="585.5" rx="1.5" transform="rotate(60, 112, 587)" opacity="0.72"></rect><rect width="476" height="3" x="530" y="148.5" rx="1.5" transform="rotate(60, 768, 150)" opacity="1.00"></rect><rect width="289" height="3" x="508.5" y="328.5" rx="1.5" transform="rotate(60, 653, 330)" opacity="0.17"></rect></g></svg>